<?xml version="1.0" encoding="utf-8" ?>
<svg xmlns="http://www.w3.org/2000/svg" xmlns:xlink="http://www.w3.org/1999/xlink" width="1024" height="1024">
	<path fill="#1F404E" d="M505.304 147.75C505.814 147.718 506.32 147.7 506.831 147.688C521.901 147.335 537.417 148.517 552.399 150.219C632.594 159.084 707.634 194.121 765.918 249.913C863.601 343.057 897.531 482.04 861.744 611.106C856.346 629.917 849.561 648.303 841.447 666.112C838.921 671.462 836.246 676.74 833.426 681.941C829.758 688.57 825.078 695.317 823.512 702.843C821.994 710.139 822.92 718.288 822.937 725.72C822.847 739.757 822.958 753.795 823.27 767.829C823.514 779.059 823.866 790.959 815.29 799.543C811.823 803.014 806.622 804.57 801.867 805.333C793.58 806.661 784.713 805.802 776.336 805.746L731 805.502C725.417 808.658 720.155 812.504 714.773 815.996C706.421 821.485 697.849 826.632 689.078 831.425C636.654 860.231 579.429 874.6 519.875 877.046C518.948 877.116 518.021 877.172 517.093 877.215C500.174 877.986 482.871 876.52 466.099 874.353C390.341 864.511 319.55 831.247 263.618 779.211C192.242 713.819 151.665 619.209 147.686 523.069C143.821 429.689 180.997 333.009 244.145 264.536C299.139 205.334 372.218 166.048 451.933 152.832C469.6 150.025 487.425 148.328 505.304 147.75Z"/>
	<path fill="#FEFEFE" d="M500.511 183.284C522.551 181.788 545.067 183.939 566.746 187.906C625.329 198.172 680.157 223.743 725.674 262.027C792.034 318.192 833.327 398.448 840.447 485.094C843.9 527.273 839.199 569.722 826.601 610.123C823.153 621.447 815.451 636.33 813.466 646.695C811.936 654.688 812.96 663.79 812.994 671.912L813.03 717.873L813.041 754.271C813.13 763.669 814.302 774.074 812.387 783.301C811.817 786.044 810.49 788.349 808.634 790.44C806.335 793.031 803.192 794.148 799.857 794.78C791.717 796.324 782.133 795.325 773.797 795.251L717.158 795.12C707.13 795.042 696.413 793.643 686.481 795.102C676.337 796.591 656.976 809.074 645.611 813.773C605.707 830.272 568.493 838.484 525.541 841.91C439.102 845.245 354.826 814.408 290.951 756.073C225.175 696.384 186.165 612.752 182.699 523.998C180.567 457.926 198.126 392.711 233.147 336.642C236.68 330.954 240.317 325.245 244.397 319.931C248.523 314.556 253.059 309.502 256.915 303.921C261.416 297.406 264.689 290.037 268.785 283.257C274.746 273.394 282.278 264.339 290.087 255.886C315.825 228.025 352.888 207.465 389.975 199.646C402.518 197.001 415.34 196.513 427.918 194.172C436.872 192.505 445.694 190.139 454.644 188.426C469.786 185.59 485.116 183.871 500.511 183.284Z"/>
	<path fill="#1F404E" d="M447.547 206.673C457.832 205.863 468.013 204.14 478.253 202.93C488.253 201.801 498.304 201.18 508.368 201.07C584.459 200.527 658.186 227.482 715.984 276.974C752.092 307.838 782.596 348.036 800.743 392.062C794.435 390.552 788.244 388.153 782.066 386.17C772.273 383.008 762.404 380.084 752.469 377.402C718.024 368.107 682.974 361.222 647.573 356.797C633.917 355.044 620.433 353.333 606.678 352.606C588.909 374.923 569.593 395.733 550.841 417.203C541.015 428.453 531.758 440.125 522.084 451.487C512.797 462.395 503.102 473.001 493.618 483.741L460.223 521.887C454.796 528.119 448.649 534.313 443.76 540.955L439.981 544.693C450.361 560.782 460.445 577.098 471.264 592.896C474.462 588.052 477.958 581.842 484.227 580.734C486.092 580.405 488.476 580.584 490.026 581.795C491.751 583.141 492.612 585.024 492.776 587.191C493.521 597.014 479.548 611.994 474.377 620.62C474.86 625.938 475.295 631.655 471.468 635.962C467.634 640.279 461.967 640.634 456.621 640.981C456.817 646.804 458.173 661.771 456.752 666.51C456.345 667.866 455.188 669.148 454.324 670.236C457.113 687.12 470.843 714.732 459.865 729.753C458.003 732.301 455.105 735.223 451.788 735.578C449.489 735.824 447.282 734.863 445.59 733.349C438.325 726.844 436.121 707.037 434.31 697.484L434.051 698.272C431.136 707.301 429.974 728.917 421.111 733.669C418.698 734.963 415.693 734.947 413.147 734.072C409.794 732.919 407.318 730.255 405.921 727.052C398.978 711.134 415.412 673.528 412.354 669.261C411.721 668.376 410.821 667.302 410.631 666.206C409.769 661.241 410.656 646.811 410.483 640.552C405.171 640.569 399.223 640.843 395.044 636.915C392.751 634.76 391.6 631.509 391.559 628.398C391.53 626.251 392.045 623.996 392.418 621.886C391.414 619.3 390.371 616.831 388.929 614.455C385.337 608.539 373.04 594.312 376.655 586.837C377.343 585.414 378.41 584.483 379.927 584.013C382.333 583.266 385.319 583.352 387.567 584.546C390.409 586.054 392.293 589.007 393.923 591.676C403.377 576.756 413.844 561.643 421.817 545.903C421.546 544.909 421.824 545.244 421.166 544.773C411.384 544.014 401.264 541.467 391.541 539.903C361.773 535.114 332.773 534.697 303.847 544.274C267.092 556.443 236.005 581.33 218.596 616.184C204.264 578.67 199.129 535.477 201.304 495.503C201.569 490.624 201.195 485.402 202.239 480.611C202.998 472.765 204.675 464.784 206.161 457.041C212.689 423.009 223.682 391.92 240.11 361.42C244.691 352.914 249.249 344.462 255.069 336.72C254.289 341.157 253.276 345.55 252.455 349.98L258.327 346.593C260.357 313.895 283.29 278.407 306.885 256.35C336.949 228.478 375.315 211.223 416.116 207.223C426.602 206.198 437.03 206.303 447.547 206.673Z"/>
	<path fill="#F4BA74" d="M255.069 336.72C254.289 341.157 253.276 345.55 252.455 349.98C252.517 351.77 252.975 352.397 253.999 353.888C259.319 361.632 266.533 368.546 272.728 375.609C280.749 384.754 288.362 394.251 296.494 403.299C326.709 437.273 356.721 471.427 386.528 505.76C397.935 518.838 410.43 531.13 421.166 544.773C411.384 544.014 401.264 541.467 391.541 539.903C361.773 535.114 332.773 534.697 303.847 544.274C267.092 556.443 236.005 581.33 218.596 616.184C204.264 578.67 199.129 535.477 201.304 495.503C201.569 490.624 201.195 485.402 202.239 480.611C202.998 472.765 204.675 464.784 206.161 457.041C212.689 423.009 223.682 391.92 240.11 361.42C244.691 352.914 249.249 344.462 255.069 336.72Z"/>
	<path fill="#DD533D" d="M255.069 336.72C254.289 341.157 253.276 345.55 252.455 349.98C252.517 351.77 252.975 352.397 253.999 353.888C259.319 361.632 266.533 368.546 272.728 375.609C280.749 384.754 288.362 394.251 296.494 403.299C261.286 422.487 236.746 438.335 212.323 471.007C210.879 472.937 204.844 482.079 202.527 481.684L202.239 480.611C202.998 472.765 204.675 464.784 206.161 457.041C212.689 423.009 223.682 391.92 240.11 361.42C244.691 352.914 249.249 344.462 255.069 336.72Z"/>
	<path fill="#DD533D" d="M447.547 206.673C457.832 205.863 468.013 204.14 478.253 202.93C488.253 201.801 498.304 201.18 508.368 201.07C584.459 200.527 658.186 227.482 715.984 276.974C752.092 307.838 782.596 348.036 800.743 392.062C794.435 390.552 788.244 388.153 782.066 386.17C772.273 383.008 762.404 380.084 752.469 377.402C718.024 368.107 682.974 361.222 647.573 356.797C633.917 355.044 620.433 353.333 606.678 352.606C603.309 327.97 592.856 304.19 578.392 284.083C546.905 240.308 500.081 215.319 447.547 206.673Z"/>
	<path fill="#FEFEFE" d="M294.065 344.202C300.135 343.264 307.401 344.203 313.238 346.04C316.775 347.154 321.044 349.009 323.408 351.923C328.342 358.003 331.727 365.587 335.35 372.5L349.437 399.478C369.85 438.716 389.475 478.346 410.166 517.443C406.35 513.2 402.498 508.988 398.61 504.809C370.649 473.456 342.898 441.916 315.359 410.191C302.902 395.881 289.62 382.111 277.901 367.186C276.08 364.866 272.597 360.706 272.336 357.739C272.135 355.454 273.071 352.939 274.519 351.2C278.963 345.864 287.599 344.864 294.065 344.202Z"/>
	<path fill="#FEFEFE" d="M557.259 343.65C566.147 343.086 577.589 343.789 584.961 349.403C587.126 351.052 588.719 353.252 588.967 356.02C589.241 359.093 587.648 361.214 585.948 363.594C582.316 368.678 577.824 373.252 573.708 377.948L553.096 401.632C539.968 416.904 526.755 432.102 513.457 447.225C496.415 466.394 479.082 485.262 462.387 504.741C456.918 510.84 451.833 517.307 446.539 523.562C452.463 511.113 459.614 499.227 466.057 487.037L505.778 411.849L523.918 377.998C528.033 370.143 531.732 361.55 536.902 354.338C541.986 347.246 549.092 345.021 557.259 343.65Z"/>
	<path fill="#FEFEFE" d="M426.986 344.2C430.96 343.524 435.605 343.827 439.589 344.402C445.467 345.251 452.477 347.289 456.129 352.286C458.181 355.093 457.832 358.471 457.615 361.768C457.201 368.043 455.856 374.257 454.787 380.445L450.273 407.329L431.6 514.391L430.469 519.611C424.912 489.01 420.258 458.189 415.149 427.504C411.79 407.331 407.609 387.053 405.022 366.782C404.423 362.088 403.418 355.688 406.62 351.768C411.216 346.142 420.217 344.936 426.986 344.2Z"/>
	<path fill="#DD533D" d="M458.047 221.348C505.091 230.992 546.531 256.36 573.392 296.722C583.264 311.557 589.144 328.197 594.114 345.171C578.952 335.79 565.233 333.387 547.796 337.513L546.664 337.784C541.791 339.702 537.66 342.087 533.425 345.168C525.985 299.924 507.056 259.455 471.974 229.177C467.705 225.862 462.912 223.647 458.047 221.348Z"/>
	<path fill="#FEFEFE" d="M471.974 229.177C480.364 230.026 506.746 257.294 513.462 265.542C528.607 284.143 544.965 313.733 546.664 337.784C541.791 339.702 537.66 342.087 533.425 345.168C525.985 299.924 507.056 259.455 471.974 229.177Z"/>
	<path fill="#FEFEFE" d="M362.276 344.209C370.457 343.581 380.831 345.032 387.568 350.058C391.039 352.648 392.31 355.936 393.499 359.954C395.404 366.394 396.253 373.246 397.389 379.856L402.814 411.822L420.288 516.143C417.364 511.16 414.844 505.954 412.25 500.796L364.231 407.309C357.067 393.439 349.295 379.764 342.449 365.75C341.381 363.564 339.783 360.765 339.516 358.314C339.238 355.752 339.79 353.23 341.443 351.219C346.009 345.665 355.608 344.72 362.276 344.209Z"/>
	<path fill="#DD533D" d="M403.928 219.75L403.394 220.058C396.856 223.767 390.086 226.303 383.955 230.817C358.807 249.335 343.535 281.594 335.261 311.05C332.229 321.845 329.892 333.158 329.417 344.377C314.786 336.785 299.981 334.269 283.672 337.271C278.549 338.366 274.359 340.543 269.911 343.236C270.519 340.245 271.317 337.298 272.12 334.355C281.995 298.13 306.516 264.886 339.347 246.15C358.082 231.968 381.47 225.388 403.928 219.75Z"/>
	<path fill="#FEFEFE" d="M339.347 246.15C339.239 246.296 339.134 246.444 339.024 246.589C334.921 251.998 328.906 255.719 324.305 260.681C303.875 282.716 289.473 307.496 283.672 337.271C278.549 338.366 274.359 340.543 269.911 343.236C270.519 340.245 271.317 337.298 272.12 334.355C281.995 298.13 306.516 264.886 339.347 246.15Z"/>
	<path fill="#DD533D" d="M391.872 235.064C399.4 227.916 410.022 225.025 419.889 222.846C399.576 254.828 396.507 307.14 394.949 344.146C380.777 336.914 366.042 333.384 350.346 337.818C345.795 338.773 341.565 340.972 337.4 342.966C337.382 333.061 340.367 322.311 343.109 312.798C350.64 286.669 367.62 248.492 391.872 235.064Z"/>
	<path fill="#FEFEFE" d="M337.4 342.966C337.382 333.061 340.367 322.311 343.109 312.798C350.64 286.669 367.62 248.492 391.872 235.064C391.804 235.183 391.737 235.303 391.667 235.421C388.372 240.913 382.944 245.101 379.424 250.522C362.68 276.311 351.473 306.921 350.346 337.818C345.795 338.773 341.565 340.972 337.4 342.966Z"/>
	<path fill="#FEFEFE" d="M495.44 344.22C502.289 344.307 510.005 345.206 516.116 348.512C518.531 349.818 520.642 351.622 521.397 354.352C522.409 358.009 521.227 361.716 519.841 365.099C514.559 378.001 506.384 389.973 499.879 402.316L450.725 495.672C447.741 501.618 444.822 508.101 441.029 513.562C442.153 505.937 443.962 498.331 445.436 490.762C447.887 478.085 450.209 465.384 452.403 452.66L460.52 405.412C462.458 393.637 464.131 381.772 466.562 370.088C467.508 365.538 468.599 356.954 471.546 353.452C477.855 345.953 486.249 344.805 495.44 344.22Z"/>
	<path fill="#DD533D" d="M447.203 230.659C446.05 228.828 444.776 227.137 444.395 224.97L444.764 224.042C447.058 223.157 450.09 224.702 452.262 225.658C480.374 238.027 504.288 276.112 515.001 304.255C519.924 317.187 522.869 330.313 524.723 344.003C509.255 336.124 494.057 333.861 477.18 339.031C473.381 340.277 470.077 342.333 466.652 344.351C462.171 303.268 460.956 270.344 447.203 230.659Z"/>
	<path fill="#FEFEFE" d="M447.203 230.659C458.685 240.502 470.587 292.465 473.091 308.03C474.735 318.25 474.734 328.996 477.18 339.031C473.381 340.277 470.077 342.333 466.652 344.351C462.171 303.268 460.956 270.344 447.203 230.659Z"/>
	<path fill="#DD533D" d="M425.423 228.535C426.901 226.045 427.994 223.559 430.98 222.725C432.959 222.987 433.989 223.905 435.176 225.42C451.695 246.502 456.633 314.903 458.055 341.609C443.731 335.884 429.439 334.033 414.375 338.215C410.116 339.305 406.664 340.992 402.962 343.329C403.949 308.206 407.189 259.379 425.423 228.535Z"/>
	<path fill="#FEFEFE" d="M425.423 228.535C425.067 235.992 420.429 246.001 418.986 253.872C415.177 274.655 414.033 295.983 413.918 317.074C413.88 324.067 413.644 331.253 414.375 338.215C410.116 339.305 406.664 340.992 402.962 343.329C403.949 308.206 407.189 259.379 425.423 228.535Z"/>
	<path fill="#FEFEFE" d="M430.619 549.254C438.379 556.004 457.865 589.472 464.846 600.616C459.259 608.125 453.444 615.355 447.406 622.507L434.619 622.512L419.156 622.428C413.158 614.437 406.726 606.806 400.807 598.741C411.089 582.455 421.028 565.956 430.619 549.254Z"/>
	<path fill="#1F404E" d="M429.218 583.567C433.886 583.301 438.211 583.037 442.54 585.221C446.882 587.459 450.103 591.396 451.436 596.095C452.762 600.702 452.033 605.736 449.7 609.897C447.55 613.73 444.214 616.234 440.058 617.495C434.526 617.972 429.066 617.624 423.535 617.351C421.527 614.206 419.555 610.985 418.191 607.498C416.32 602.716 415.709 597.374 417.918 592.586C420.187 587.671 424.439 585.456 429.218 583.567Z"/>
	<path fill="#FEFEFE" d="M431.836 592.23C434.829 591.361 438.058 592.209 440.237 594.438C442.417 596.666 443.193 599.913 442.257 602.886C441.322 605.86 438.826 608.077 435.763 608.656C431.33 609.493 427.02 606.703 425.971 602.315C424.922 597.927 427.503 593.488 431.836 592.23Z"/>
	<path fill="#DD533D" d="M420.051 631.915C429.034 631.776 438.047 631.966 447.032 631.999L447.008 663.522L420.453 663.402C420.119 652.918 420.154 642.404 420.051 631.915Z"/>
	<path fill="#FEFEFE" d="M422.751 672.215L445.216 672.242C448.14 687.123 452.506 701.574 455.016 716.583C454.274 718.391 452.654 722.641 450.8 723.42C446.927 718.286 442.245 688.932 440.717 680.604C440.168 679.966 439.616 679.297 438.914 678.816C437.246 677.674 434.842 676.518 432.771 676.973C429.989 677.585 428.173 680.385 427.161 682.838C425.698 686.387 425.2 690.374 424.512 694.134C422.705 704.013 421.469 716.265 416.576 725.098C415.386 722.725 414.174 720.398 413.916 717.716C412.838 706.527 419.755 683.504 422.751 672.215Z"/>
	<path fill="#FEFEFE" d="M399.119 613.316C399.608 613.692 399.722 613.759 400.221 614.258C403.502 617.534 410.927 625.661 410.858 630.121C409.147 630.341 407.382 630.594 405.653 630.481C404.709 630.419 403.669 630.097 403.114 629.288C401.789 627.359 402.681 624.713 403.101 622.591C401.61 619.584 399.92 616.595 399.119 613.316Z"/>
	<path fill="#FEFEFE" d="M466.906 613.988L467.207 614.364C467.133 614.839 461.952 627.188 461.199 629.507C459.731 630.286 458.23 630.161 456.594 630.245C456.245 629.738 456.16 629.801 456.181 629.211C456.332 624.91 464.103 617.297 466.906 613.988Z"/>
	<path fill="#1F404E" d="M657.009 420.66C662.039 420.257 667.159 420.58 672.038 421.913C685.474 425.585 693.018 435.395 699.611 446.99C706.294 446.695 720.214 444.458 725.256 449.285C728.404 452.299 728.065 456.034 728.046 460.034L755.681 460.097C762.34 460.113 769.125 460.39 775.733 459.475C783.184 467.949 791.999 475.216 800.448 482.67C800.307 514.684 800.334 546.698 800.529 578.712L800.847 783.253L670.25 783.395L548.619 783.495L525.084 763.903L525.817 569.742L525.757 508.841C525.667 496.949 524.891 484.879 525.679 473.008C525.899 469.692 526.646 466.214 529.094 463.781C531.158 461.73 535.071 460.898 537.844 460.55C543.759 459.808 550.233 460.435 556.212 460.461L594.03 460.597L594.165 445.559C604.226 444.509 614.378 444.97 624.455 445.464C625.616 442.008 627.185 438.743 629.313 435.778C636.023 426.432 645.988 422.418 657.009 420.66Z"/>
	<path fill="#FEFEFE" d="M561.412 475.75L594.089 475.499L594.328 494.716L677 494.569C690.463 494.573 703.948 495.215 717.4 494.553C719.375 494.456 724.766 494.444 726.111 492.981C729.674 489.107 728.529 480.922 728.403 475.989C742.619 476.079 756.837 475.995 771.052 475.736L771.05 685.961L771.051 737.224C771.06 743.448 772.049 754.104 770.719 759.914L769.921 760.34C741.975 760.774 713.955 760.455 686.002 760.415L540.003 760.13L539.961 475.9L561.412 475.75Z"/>
	<path fill="#1F404E" d="M564.946 507.575L614.891 507.594L614.977 560.97L564.585 560.99C564.464 543.191 564.069 525.359 564.946 507.575Z"/>
	<path fill="#FEFEFE" d="M572.671 515.958C580.86 515.825 600.514 514.274 607.933 516.689C607.907 518.612 607.826 520.397 607.485 522.291L607.505 553.52L572.688 553.256L572.671 515.958Z"/>
	<path fill="#DD533D" d="M607.933 516.689C607.907 518.612 607.826 520.397 607.485 522.291C604.237 526.725 601.962 531.83 599.398 536.675C596.605 542.033 593.592 547.274 590.367 552.384C585.276 546.671 575.541 532.461 574.387 524.892C574.226 523.836 574.208 523.828 574.895 522.961C575.057 522.953 575.219 522.925 575.381 522.938C579.433 523.27 586.268 530.779 589.34 533.615C594.785 526.827 601.937 522.796 607.933 516.689Z"/>
	<path fill="#1F404E" d="M564.622 569.556C581.409 569.877 598.198 570.071 614.987 570.14C614.966 587.068 614.855 603.996 614.655 620.924C598.111 621.233 581.565 621.347 565.019 621.266L564.622 569.556Z"/>
	<path fill="#FEFEFE" d="M572.859 577.996C579.935 577.276 601.741 576.177 607.623 578.917C607.462 580.344 607.399 581.894 607.011 583.271C607.68 593.241 607.505 603.293 607.509 613.282C595.995 613.478 584.402 613.113 572.876 613.115L572.859 577.996Z"/>
	<path fill="#DD533D" d="M607.623 578.917C607.462 580.344 607.399 581.894 607.011 583.271C600.58 591.633 596.71 602.88 590.297 611.953C584.91 606.351 574.927 593.571 574.421 585.529L575.639 584.377C579.976 585.367 585.264 591.573 588.459 594.688C594.614 588.019 600.431 584.177 607.623 578.917Z"/>
	<path fill="#1F404E" d="M564.956 629.5L614.694 629.602C614.609 646.423 614.706 663.245 614.987 680.063L564.761 680.072L564.956 629.5Z"/>
	<path fill="#FEFEFE" d="M572.978 637.924C581.984 637.663 599.287 636.012 607.612 638.391L607.283 644.354C607.632 653.718 607.427 663.137 607.425 672.508L573.084 672.406C572.931 660.914 572.992 649.416 572.978 637.924Z"/>
	<path fill="#DD533D" d="M607.612 638.391L607.283 644.354L606.927 643.692C605.91 644.123 605.642 644.828 605.049 645.749C603.49 648.169 602.449 650.964 600.974 653.461C597.427 659.467 593.554 665.311 589.791 671.184C585.831 666.521 573.73 651.396 574.751 644.891C574.864 644.165 574.906 644.343 575.571 643.953C580.241 644.263 585.335 650.647 588.518 653.884C594.436 647.104 599.833 642.833 607.612 638.391Z"/>
	<path fill="#1F404E" d="M565.122 688.498L615.062 688.51C615.285 702.817 616.47 724.026 614.431 737.67L565.028 737.898L565.122 688.498Z"/>
	<path fill="#DD533D" d="M572.62 696.542C578.649 696.458 603.872 695.033 607.274 697.388L606.933 702.332C607.232 711.536 607.851 720.952 607.15 730.139C601.445 730.292 595.78 730.527 590.087 729.967L589.602 730.043C584.014 730.217 578.424 730.325 572.833 730.367L572.62 696.542Z"/>
	<path fill="#FEFEFE" d="M572.62 696.542C578.649 696.458 603.872 695.033 607.274 697.388C600.712 702.568 594.527 707.171 588.733 713.28C585.683 710.207 579.832 702.98 575.495 702.425C574.8 702.859 574.751 702.693 574.556 703.404C573.467 707.381 578.263 714.944 580.474 718.206C583.258 722.31 586.516 726.159 589.602 730.043C584.014 730.217 578.424 730.325 572.833 730.367L572.62 696.542Z"/>
	<path fill="#FEFEFE" d="M590.087 729.967C592.285 725.959 595.198 722.141 597.618 718.236C600.853 713.016 603.774 707.6 606.933 702.332C607.232 711.536 607.851 720.952 607.15 730.139C601.445 730.292 595.78 730.527 590.087 729.967Z"/>
	<path fill="#366D84" d="M635.524 586.582C668.537 586.815 701.552 586.791 734.565 586.508L734.551 602.961L635.505 602.988L635.524 586.582Z"/>
	<path fill="#366D84" d="M635.499 646.494L735.006 646.589L735.022 662.494L635.51 662.732L635.499 646.494Z"/>
	<path fill="#366D84" d="M703.307 527.263C713.851 526.906 724.446 527.068 734.997 527.027L734.865 543.425L667.25 543.215C656.848 543.201 646.432 543.404 636.031 543.524L636.018 527.294L703.307 527.263Z"/>
	<path fill="#366D84" d="M685.31 706.264C701.737 705.779 718.25 706.12 734.686 706.13C734.712 711.565 734.657 717 734.522 722.434C717.651 722.093 700.776 721.969 683.902 722.06L635.951 722.504L635.94 706.293L685.31 706.264Z"/>
	<path fill="#DD533D" d="M659.58 433.095C664.733 432.809 669.661 433.668 674.205 436.222C682.39 440.821 685.965 448.148 688.348 456.772L716.527 456.591L716.497 483.039C700.202 482.281 683.897 481.77 667.587 481.507L608.27 481.496L608.246 461.308C613.612 461.545 619.247 462.075 624.536 460.923C634.235 458.811 636.466 451.9 641.353 444.486C645.822 437.705 651.866 434.631 659.58 433.095Z"/>
	<path fill="#1F404E" d="M658.243 438.244C667.744 437.438 676.104 444.473 676.934 453.972C677.764 463.471 670.749 471.849 661.253 472.703C651.722 473.559 643.308 466.514 642.475 456.982C641.642 447.449 648.708 439.052 658.243 438.244Z"/>
	<path fill="#FEFEFE" d="M658.439 446.245C663.481 445.547 668.174 448.96 669.062 453.972C669.951 458.984 666.718 463.802 661.743 464.879C658.353 465.613 654.833 464.435 652.568 461.809C650.303 459.182 649.655 455.528 650.879 452.283C652.103 449.037 655.004 446.721 658.439 446.245Z"/>
	<path fill="#366D84" d="M480.254 680.209C489.881 680.082 500.115 684.136 506.526 691.472C508.117 693.292 509.447 696.067 511.777 696.866L512.663 695.951L513.202 696.069C514.985 703.707 513.592 713.169 513.572 721.056L513.663 768.13C523.192 777.642 534.028 785.86 543.914 795.019C576.642 795.039 609.434 794.624 642.154 795.206C628.809 801.839 614.245 806.583 600.003 810.875C587.629 814.605 575.052 817.024 562.29 818.992C507.265 827.814 450.886 821.955 398.85 802.007C385.496 796.845 372.855 790.22 360.259 783.461C327.817 766.473 293.884 737.095 271.165 708.419C272.947 708.376 274.718 708.378 276.499 708.486C285.582 709.037 290.54 713.73 296.212 720.201C294.62 715.611 293.327 711.106 294.191 706.191C295.219 700.347 298.88 695.309 303.689 691.945C309.799 687.671 317.445 686.237 324.732 687.555C331.635 688.732 337.748 692.703 341.628 698.533C346.06 705.195 346.87 713.709 344.817 721.348C344.151 723.825 343.166 726.115 342.677 728.654L343.19 728.901C346.731 727.119 348.96 718.472 351.071 714.959C353.931 710.198 361.336 706.491 366.508 705.377C370.819 704.478 375.281 704.6 379.537 705.733C400.048 711.028 392.437 734.586 406.439 743.408C410.712 746.1 415.971 745.89 420.691 744.658C427.003 743.01 430.419 739.353 433.517 733.88C435.544 737.136 437.635 740.162 440.808 742.434C445.113 745.516 450.51 746.091 455.62 745.143C460.995 744.146 465.456 741.33 468.459 736.737C478.971 720.66 471.986 699.021 468.159 681.903C472.179 681.04 476.156 680.495 480.254 680.209Z"/>
	<path fill="#F4BA74" d="M606.678 352.606C620.433 353.333 633.917 355.044 647.573 356.797C682.974 361.222 718.024 368.107 752.469 377.402C762.404 380.084 772.273 383.008 782.066 386.17C788.244 388.153 794.435 390.552 800.743 392.062C817.604 426.523 824.026 474.13 823.945 512.174C823.92 523.462 822.462 534.716 822.432 545.985C819.144 545.214 815.852 544.371 812.524 543.794L812.579 503.457C812.6 495.761 813.533 487.242 811.943 479.683C811.327 476.757 809.777 474.464 807.689 472.362C804.443 469.092 800.425 466.53 796.955 463.489C787.082 454.837 782.989 447.518 768.467 447.774C758.107 447.956 747.609 448.969 737.302 449.99C735.666 444.918 733.994 440.613 728.957 437.998C722.448 434.619 712.992 435.831 705.885 435.949C696.91 422.509 686.452 412.77 670.133 409.555C656.987 406.965 642.549 410.072 631.513 417.649C624.951 422.154 620.241 428.188 616.244 434.987C606.381 434.188 594.257 432.526 586.213 439.646C583.15 442.357 581.235 445.852 579.557 449.522C563.742 448.895 533.442 444.8 521.518 456.104C515.41 461.894 513.909 469.098 513.906 477.153C513.903 486.489 514.656 495.775 514.438 505.131C514.134 518.192 512.87 531.063 512.99 544.169C499.066 543.601 485.222 541.942 471.308 541.213C462.161 540.734 452.921 540.951 443.76 540.955C448.649 534.313 454.796 528.119 460.223 521.887L493.618 483.741C503.102 473.001 512.797 462.395 522.084 451.487C531.758 440.125 541.015 428.453 550.841 417.203C569.593 395.733 588.909 374.923 606.678 352.606Z"/>
</svg>
